#!OML:ASF F:\VICON\USERDATA\INSTALL\rory3\rory3.ASF
:FULLY-SPECIFIED
:DEGREES
1087
root 1.23264 15.3596 -5.22441 -6.25979 -2.84559 2.26149
lowerback -6.82909 11.9587 9.42598
upperback -2.77207 15.5268 -5.7959
thorax 4.89296 7.93227 -9.06354
lowerneck 4.54538 -8.41149 -14.0068
upperneck 49.1615 -3.51567 -15.1891
head 18.5255 -5.52544 -5.36956
rclavicle 1.11319e-014 -2.38542e-014
rhumerus 67.5135 -4.58802 -74.1899
rradius 146.44
rwrist -64.8703
rhand -0.193744 -41.6095
rfingers 7.12502
rthumb 25.4048 -69.9368
lclavicle 1.11319e-014 -2.38542e-014
lhumerus -57.4081 -12.2729 81.3032
lradius 33.9069
lwrist 20.3857
lhand -11.3359 -27.1543
lfingers 7.12502
lthumb 14.6969 2.30474
rfemur -14.8842 -33.025 18.8759
rtibia 66.8728
rfoot -48.6204 -36.2544
rtoes 8.73952
lfemur -35.259 -19.8355 -4.1207
ltibia 24.3501
lfoot 8.67056 -6.05596
ltoes -15.5417
1088
root 1.23458 15.3612 -5.21873 -6.22432 -2.83855 2.33572
lowerback -6.93122 11.9751 9.39215
upperback -2.73334 15.5448 -5.82428
thorax 4.99443 7.94638 -9.04569
lowerneck 4.43034 -8.43276 -14.0813
upperneck 49.2054 -3.52194 -15.156
head 18.594 -5.54046 -5.36044
rclavicle 4.37326e-015 9.54166e-015
rhumerus 67.5791 -4.60254 -74.1718
rradius 146.468
rwrist -64.8212
rhand -0.130027 -41.9709
rfingers 7.12502
rthumb 25.4658 -70.2895
lclavicle 4.37326e-015 9.54166e-015
lhumerus -57.2902 -12.2848 81.3112
lradius 33.8744
lwrist 20.468
lhand -11.6048 -26.4488
lfingers 7.12502
lthumb 14.4378 3.02895
rfemur -14.8879 -33.0896 18.745
rtibia 66.899
rfoot -48.6048 -36.1586
rtoes 8.9184
lfemur -35.2305 -19.9053 -4.17975
ltibia 24.2485
lfoot 8.76509 -5.95912
ltoes -15.5085
1089
root 1.23409 15.3649 -5.21125 -6.21959 -2.77899 2.60846
lowerback -7.10885 11.952 9.09013
upperback -2.65473 15.5218 -5.85973
thorax 5.10319 7.93653 -8.88942
lowerneck 4.37324 -8.41058 -14.152
upperneck 49.2085 -3.48081 -15.1189
head 18.6226 -5.5317 -5.33233
rclavicle 8.66701e-014 2.54444e-014
rhumerus 67.0245 -4.15841 -73.8841
rradius 146.99
rwrist -64.3316
rhand -0.114414 -41.8995
rfingers 7.12502
rthumb 25.4808 -70.216
lclavicle 8.66701e-014 2.54444e-014
lhumerus -57.1982 -12.2139 81.3214
lradius 33.8086
lwrist 20.429
lhand -11.6165 -26.1789
lfingers 7.12502
lthumb 14.4266 3.29968
rfemur -14.8434 -33.1714 18.3659
rtibia 66.9235
rfoot -48.6455 -35.9879
rtoes 9.95285
lfemur -35.1823 -20.0397 -4.46684
ltibia 24.1843
lfoot 8.78717 -5.85896
ltoes -15.5086
1090
root 1.2327 15.3674 -5.20542 -6.18671 -2.71342 2.83236
lowerback -7.29575 11.8762 8.77522
upperback -2.56637 15.4263 -5.84094
thorax 5.19171 7.88756 -8.68496
lowerneck 4.21396 -8.33117 -14.3219
upperneck 49.1593 -3.32781 -15.076
head 18.6609 -5.49311 -5.27312
rclavicle -5.76476e-014 1.27222e-014
rhumerus 67.1855 -3.98561 -73.8783
rradius 146.985
rwrist -64.3563
rhand -0.0971054 -41.9477
rfingers 7.12502
rthumb 25.4974 -70.2618
lclavicle -5.76476e-014 1.27222e-014
lhumerus -57.0859 -11.9259 81.3044
lradius 33.7231
lwrist 20.2984
lhand -11.9024 -26.0427
lfingers 7.12502
lthumb 14.1511 3.4554
rfemur -14.878 -33.2228 18.1128
rtibia 66.936
rfoot -48.5173 -36.202
rtoes 9.82866
lfemur -35.1899 -20.0772 -4.7205
ltibia 24.1516
lfoot 8.76371 -5.83846
ltoes -15.2674
1091
root 1.23392 15.3662 -5.20426 -6.0634 -2.71568 2.65819
lowerback -7.38875 11.8993 8.97266
upperback -2.62312 15.4347 -5.8341
thorax 5.23225 7.89335 -8.76313
lowerneck 4.18854 -8.30489 -14.372
upperneck 49.1508 -3.29455 -15.027
head 18.67 -5.4831 -5.23826
rclavicle 4.09496e-014 -1.43125e-014
rhumerus 67.1942 -3.95163 -73.8474
rradius 146.918
rwrist -64.2964
rhand -0.000750748 -41.9506
rfingers 7.12502
rthumb 25.5897 -70.2515
lclavicle 4.09496e-014 -1.43125e-014
lhumerus -57.14 -11.9701 81.3097
lradius 33.7613
lwrist 20.2487
lhand -12.2213 -25.8863
lfingers 7.12502
lthumb 13.8437 3.63298
rfemur -15.0531 -33.2109 18.4193
rtibia 66.92
rfoot -48.4177 -36.5063
rtoes 9.34589
lfemur -35.3128 -19.9078 -4.5369
ltibia 24.1119
lfoot 8.83127 -5.93919
ltoes -14.8479
